<svg xmlns="http://www.w3.org/2000/svg" width="600" height="600" viewBox="0 0 600 600" version="1.1">
	<path fill-opacity="0.227" d="M 145.692 3.428 C 136.537 5.889, 130.522 14.594, 125.835 32.163 C 123.319 41.592, 123.061 50.631, 124.450 80.564 C 125.076 94.039, 124.972 99.947, 124.043 103.821 C 121.923 112.658, 116.191 115.085, 107.141 110.978 C 100.266 107.858, 98.205 108.279, 96.015 113.250 C 94.325 117.084, 94.071 121.590, 93.420 159.301 C 92.567 208.608, 93.062 206.250, 82.821 209.843 C 79.148 211.132, 75.846 212.932, 75.483 213.843 C 75.121 214.755, 74.591 219.775, 74.306 225 C 73.654 236.939, 75.584 245.748, 81.019 255.652 C 86.194 265.081, 90 276.625, 90 282.893 C 90 287.449, 89.568 288.420, 85.500 293 C 81.923 297.027, 81 298.812, 81 301.698 C 81 306.324, 87.888 318.744, 96.141 329 C 107.656 343.311, 108.353 347.011, 101.500 357.445 C 92.681 370.873, 95.253 375.241, 124.926 397.236 C 146.910 413.531, 148.145 415.055, 147.749 425.395 C 147.507 431.707, 147.603 431.987, 151.102 435.196 C 155.260 439.009, 158.140 444.233, 160.434 452.124 C 161.323 455.184, 162.602 458.426, 163.276 459.328 C 166 462.979, 187.221 473.870, 199.309 477.821 C 244.959 492.740, 266.416 495.661, 292.844 490.554 C 299.805 489.209, 310.450 487.365, 316.500 486.457 C 330.410 484.369, 346.072 479.295, 357 473.337 C 377.694 462.053, 380.076 461, 384.902 461 C 389.011 461, 390.045 461.466, 393.228 464.750 C 398.961 470.668, 419.229 503.801, 428.859 523 C 438.297 541.816, 442.259 551.842, 447.494 570.153 C 451.331 583.571, 452.107 585.292, 456.370 589.835 C 460.075 593.783, 463.329 595.614, 468.841 596.853 L 472.892 597.763 479.920 590.515 C 483.785 586.528, 487.410 582.052, 487.974 580.568 C 490.992 572.630, 487.763 561.154, 477.263 542.500 C 462.124 515.605, 447.389 496.146, 421.615 469.014 C 415.079 462.133, 409.018 455.009, 408.148 453.184 C 406.736 450.224, 406.727 449.578, 408.058 447.205 C 410.079 443.605, 414.858 440.543, 422.345 438.052 C 434.653 433.956, 443.448 427.769, 458.519 412.605 C 480.085 390.908, 493.802 371.012, 511.335 336 C 521.827 315.048, 524.482 307.391, 525.663 294.670 C 526.148 289.450, 525.928 288.120, 524.233 286.033 C 521.739 282.960, 516.668 282.927, 509.645 285.938 C 500.663 289.788, 500.643 289.728, 506.431 275.830 C 512.221 261.926, 514.205 253.016, 514.299 240.500 C 514.401 227.064, 513.051 222.060, 504.986 205.972 C 501.763 199.543, 495.898 184.882, 491.951 173.391 C 488.005 161.901, 484.091 151.018, 483.253 149.206 C 480.982 144.293, 477.558 143.001, 466.800 142.995 C 458.641 142.991, 457.166 142.715, 454.777 140.745 C 453.279 139.510, 448.025 131.461, 443.101 122.859 C 420.354 83.120, 420.132 82.911, 404.529 86.530 C 397.118 88.248, 392.170 87.495, 387.682 83.964 C 386.263 82.848, 381.553 77.337, 377.214 71.718 C 368.540 60.482, 356.007 48.180, 350.641 45.634 C 345.694 43.286, 343.342 43.570, 335.138 47.501 L 327.832 51.002 321.072 44.994 C 317.353 41.689, 310.830 35.162, 306.576 30.488 C 293.393 16.006, 288.350 14.231, 273.974 19.012 C 262.367 22.872, 257.099 22.556, 247.417 17.419 C 238.398 12.635, 234.302 12.759, 228.629 17.988 C 223.985 22.269, 218.540 25, 214.651 25 C 213.323 25, 205.898 21.868, 198.150 18.039 C 182.281 10.199, 170.702 5.846, 159.626 3.558 C 150.903 1.756, 151.876 1.765, 145.692 3.428 M 155.190 12.750 C 158.890 20.535, 160.528 24.542, 164.492 35.500 C 170.934 53.308, 179.652 70.677, 190.031 86.383 C 194.831 93.646, 199.890 101.819, 201.273 104.544 C 205.061 112.010, 216.844 129.424, 224.607 139.032 C 239.153 157.035, 299.163 227, 300.059 227 C 300.576 227, 300.999 226.213, 300.998 225.250 C 300.992 219.517, 294.216 184.493, 288.654 161.438 C 285.079 146.622, 281.407 131.048, 280.494 126.828 C 278.285 116.617, 274.422 108.740, 268.065 101.482 C 260.960 93.371, 256.918 85.781, 251.931 71.192 C 248.120 60.044, 247.853 58.644, 249.093 56.327 L 250.461 53.769 253.716 57.534 C 256.633 60.908, 258.421 64.869, 264.448 81.311 C 266.222 86.149, 271.594 94.045, 273.550 94.688 C 274.235 94.913, 275.015 87.824, 275.796 74.267 C 277.083 51.947, 277.969 46.423, 281.574 38.250 C 284.134 32.447, 285.137 31.930, 287.443 35.223 C 289.531 38.203, 289.413 41.018, 286.492 57.900 C 283.584 74.703, 283.447 80.328, 285.553 96.542 C 288.674 120.573, 295.936 160.587, 298.334 166.965 C 300.758 173.414, 302.296 175.229, 303.271 172.792 C 303.555 172.082, 309.957 155.525, 317.496 136 C 325.036 116.475, 331.578 99.825, 332.035 99 C 333.541 96.281, 334.321 100.636, 333.640 107.958 C 332.794 117.064, 330.571 123.965, 318.897 153.726 C 313.095 168.518, 308.510 181.818, 307.814 185.881 C 306.880 191.327, 306.908 196.738, 307.945 211.155 C 309.839 237.491, 311.363 242.347, 323.811 261.707 C 329.937 271.233, 345.255 299.529, 357.804 324.500 C 360.232 329.331, 362.025 331.906, 362.331 331 C 363.397 327.838, 368.009 303.205, 368.608 297.473 C 368.971 294.001, 368.721 288.931, 368.017 285.479 C 366.811 279.570, 358.033 256.946, 353.395 247.792 C 350.954 242.975, 350.048 234, 352.002 234 C 353.977 234, 362.198 246.561, 367.584 257.808 C 370.602 264.109, 373.237 269.091, 373.442 268.882 C 374.617 267.674, 379.138 241.078, 380.561 227 C 382.437 208.439, 382.144 172.009, 380.035 161.587 C 378.717 155.074, 379.370 149, 381.388 149 C 382.818 149, 387.186 162.505, 389.151 173 C 390.749 181.539, 390.721 212.514, 389.102 226.827 C 388.398 233.057, 388.030 238.363, 388.284 238.618 C 389.021 239.354, 403.111 225.003, 408.402 218.128 C 416.881 207.108, 423.803 195.120, 428.012 184.166 C 430.266 178.300, 432.569 172.314, 433.129 170.864 C 434.178 168.151, 439.641 162, 441.002 162 C 442.955 162, 442.694 167.071, 440.385 173.951 C 434.056 192.813, 419.932 217.164, 405.646 233.842 C 391.887 249.905, 389.904 252.553, 386.433 259.507 C 383.998 264.387, 382.334 269.854, 380.955 277.507 C 379.866 283.553, 377.128 297.725, 374.872 309 C 368.063 343.027, 369.222 357.121, 380.633 379.084 C 383.752 385.088, 386.574 389.998, 386.902 389.995 C 387.231 389.993, 388.686 386.280, 390.135 381.745 C 391.585 377.210, 399.083 359.082, 406.799 341.461 C 441.061 263.212, 448.689 241.808, 450.672 218.353 C 451.092 213.386, 451.910 210.107, 453.089 208.671 C 454.864 206.508, 454.876 206.508, 456.415 208.500 C 458.668 211.417, 459.987 216.774, 459.336 220.367 C 458.442 225.304, 449.180 257.429, 445.340 268.907 C 440.470 283.466, 435.760 295.047, 423.720 322.065 C 413.617 344.738, 411.218 351, 412.637 351 C 413.008 351, 414.929 349.789, 416.906 348.309 C 430.081 338.444, 443.404 324.409, 458.922 304.049 C 463.988 297.402, 468.553 292.223, 469.066 292.541 C 469.580 292.858, 470 294.555, 470 296.311 C 470 298.652, 467.667 303.022, 461.250 312.701 C 448.281 332.262, 444.120 336.834, 425.999 351.437 C 408.039 365.911, 402.277 371.576, 399.020 377.960 C 394.697 386.434, 393.492 415.906, 397.003 427.275 C 399.866 436.543, 400.332 436.763, 410.237 433.504 C 431.953 426.359, 451.116 412.722, 465.173 394.410 C 469.747 388.453, 483.705 367.030, 493.696 350.633 C 505.274 331.633, 512.941 313.464, 514.573 301.161 L 515.241 296.123 510.462 297.562 C 501.012 300.405, 495.172 298.989, 492.417 293.184 C 490.128 288.360, 491.663 281.956, 497.496 272.007 C 503.091 262.463, 505.255 254.164, 505.319 242 C 505.383 229.864, 503.776 222.632, 499.514 215.883 C 492.664 205.037, 490.126 199.170, 485.505 183.500 C 482.909 174.700, 479.821 164.221, 478.643 160.213 L 476.500 152.927 465.951 153.593 C 457.089 154.153, 454.877 153.988, 452.121 152.562 C 448.267 150.570, 442.523 141.943, 426.500 114.080 C 414.043 92.419, 416.822 94.433, 403 97.041 C 390.090 99.477, 383.595 95.567, 369.500 76.878 C 361.730 66.576, 358.093 62.658, 353.193 59.314 C 344.281 53.232, 343.222 53.123, 336.039 57.557 C 329.841 61.382, 325.904 62.090, 322.111 60.059 C 321.003 59.466, 313.743 52.035, 305.977 43.545 C 288.894 24.869, 288.535 24.682, 276.687 28.312 C 261.247 33.044, 256.017 32.747, 243.776 26.439 L 237.052 22.973 232.590 26.380 C 225.645 31.681, 220.228 33.357, 211.950 32.764 C 205.652 32.314, 203.264 31.444, 189.697 24.664 C 181.339 20.486, 171.452 15.927, 167.727 14.534 C 161.276 12.121, 154.427 11.146, 155.190 12.750 M 148.500 14.164 C 139.598 19.076, 133.231 32.832, 132.831 48.021 C 132.737 51.584, 133.028 64.850, 133.477 77.500 C 134.195 97.717, 134.090 101.201, 132.608 106.289 C 129.636 116.491, 123.292 121.013, 109.722 122.604 C 106.544 122.977, 103.619 123.781, 103.222 124.391 C 102.825 125.001, 102.484 141.475, 102.464 161 C 102.430 194.816, 102.325 196.808, 100.241 203 C 97.865 210.062, 95.040 213.687, 88.892 217.568 C 83.523 220.957, 82.616 223.739, 84.037 232.460 C 85.145 239.263, 88.971 249.786, 96.413 266.500 C 101.803 278.603, 101.404 284.421, 94.489 294.612 C 89.963 301.282, 91.071 306.117, 99.928 318.349 C 103.174 322.832, 107.662 329.875, 109.901 334 C 113.398 340.442, 113.968 342.347, 113.942 347.500 C 113.926 350.800, 113.225 355.300, 112.386 357.500 C 109.261 365.689, 108.745 367.847, 109.342 370.227 C 110.378 374.354, 117.660 381.627, 128.829 389.690 C 149.424 404.558, 153.202 408.758, 156.547 420.500 C 158.453 427.192, 161.385 433.276, 165.943 440 C 167.621 442.475, 169.672 446.535, 170.502 449.023 C 171.930 453.305, 172.555 453.846, 182.255 459.197 C 193.399 465.343, 201.757 468.363, 227 475.365 C 259.826 484.469, 263.722 484.600, 305 477.993 C 344.343 471.696, 347.419 470.711, 365.230 458.708 C 376.447 451.148, 382.990 449.140, 391.152 450.754 C 393.818 451.281, 396 451.414, 396 451.050 C 396 450.686, 395.126 447.713, 394.058 444.444 C 392.990 441.175, 388.939 428.543, 385.056 416.374 L 377.995 394.249 362.450 388.624 C 339.366 380.273, 335.603 380.722, 322.660 393.377 C 314.076 401.770, 311.210 406.359, 306.968 418.500 C 302.101 432.429, 292.454 450.132, 288.217 452.909 L 284.709 455.209 285.256 451.128 C 285.557 448.884, 287.852 442.649, 290.355 437.274 C 294.357 428.680, 296.899 421.021, 296.976 417.323 C 296.989 416.676, 294.440 417.688, 291.310 419.572 C 288.181 421.457, 283.239 423.889, 280.328 424.979 C 274.635 427.108, 257.447 429.780, 256.369 428.703 C 255.118 427.451, 258.035 425.286, 264.747 422.483 C 282.910 414.900, 291.965 409.096, 309 394.118 C 319.576 384.820, 329 375.806, 329 374.990 C 329 374.608, 325.962 372.911, 322.250 371.219 C 297.538 359.951, 265.389 359.168, 235.509 369.105 C 213.800 376.324, 210.252 379.714, 208.787 394.633 C 207.929 403.375, 204.587 417.381, 198.859 436.238 C 196.414 444.289, 192.972 448.429, 189.587 447.391 C 188.439 447.040, 187.405 446.675, 187.288 446.581 C 187.172 446.487, 188.650 441.558, 190.573 435.628 C 193.837 425.562, 197.070 409.155, 198.436 395.726 L 199.023 389.952 187.262 398.636 C 180.793 403.412, 174.042 408.422, 172.260 409.771 C 168.740 412.434, 166 412.171, 166 409.169 C 166 406.068, 171.327 400.282, 182.610 391.128 C 208.785 369.893, 212.144 367.998, 239.750 358.890 C 251.152 355.129, 259 352.028, 259 351.284 C 259 349.289, 248.613 341.674, 240.252 337.540 C 230.039 332.490, 224.223 330.539, 207.030 326.396 C 199.072 324.478, 189.810 321.555, 186.449 319.900 C 173.337 313.445, 158 297.515, 158 290.351 C 158 288.508, 158.283 287, 158.628 287 C 158.973 287, 162.911 290.073, 167.378 293.828 C 184.551 308.266, 194.138 314.240, 205.376 317.507 C 211.387 319.254, 227.246 322.060, 227.843 321.481 C 228.031 321.298, 227.474 312.259, 226.605 301.395 C 225.735 290.531, 225.264 281.403, 225.556 281.110 C 226.531 280.135, 230.919 286.429, 233.148 292 C 235.038 296.723, 235.336 299.306, 235.255 310.282 L 235.162 323.064 245.831 330.215 C 251.699 334.148, 260.732 340.441, 265.904 344.200 C 276.229 351.703, 278.934 352.698, 296.500 355.456 C 311.500 357.811, 323.667 361.839, 342 370.518 C 356.419 377.344, 368.407 381.521, 371.523 380.804 C 372.443 380.592, 370.583 375.502, 365.383 364 C 358.499 348.776, 346.138 319.972, 339.512 303.718 C 334.937 292.495, 326.633 284.853, 315 281.163 C 313.075 280.552, 301.825 278.665, 290 276.968 C 264.219 273.271, 254.286 271.057, 245.402 267.028 C 237.605 263.493, 233.769 263.288, 216.936 265.509 C 197.942 268.014, 181.839 268.407, 170.367 266.644 C 152.715 263.933, 124.013 253.574, 118.081 247.775 C 114.911 244.675, 111.480 239.186, 112.239 238.428 C 112.452 238.215, 119.797 240.945, 128.563 244.495 C 137.328 248.045, 150.800 252.612, 158.500 254.644 C 171.903 258.180, 173.225 258.341, 189.500 258.419 C 205.618 258.496, 216 257.162, 216 255.014 C 216 254.615, 209.813 249.628, 202.250 243.931 C 186.794 232.290, 172.602 218.628, 162.845 206 C 152.255 192.292, 135.007 167.295, 131.909 161.165 C 128.906 155.222, 126.341 145.316, 127.509 144.171 C 128.658 143.043, 137.050 152.942, 145.946 165.919 C 150.592 172.696, 156.359 180.323, 158.764 182.870 L 163.135 187.500 162.541 180.043 C 161.526 167.284, 155.959 149.868, 149.423 139 C 145.901 133.143, 144.153 126.642, 145.822 125.610 C 146.938 124.920, 156.405 135.433, 159.908 141.253 C 162.488 145.540, 168.800 169.765, 171.958 187.500 C 175.426 206.972, 180.780 215.930, 196.515 228.589 C 224.149 250.818, 252.048 262.572, 290 267.974 C 297.975 269.109, 308.037 270.705, 312.360 271.519 C 316.684 272.334, 320.632 273, 321.134 273 C 322.608 273, 319.686 268.940, 298.104 241 C 265.198 198.400, 254.652 185.408, 240.160 169.614 C 232.647 161.426, 223.854 151.301, 220.620 147.114 C 205.226 127.181, 166.509 64.971, 161.574 52.239 C 156.077 38.059, 151.788 21.717, 152.389 17.250 C 153.002 12.701, 152.243 12.099, 148.500 14.164 M 415 479.156 C 415 479.792, 420.446 490.419, 427.103 502.772 C 444.308 534.702, 452.501 552.684, 459.450 573.766 C 463.316 585.493, 464.845 586.651, 471.790 583.106 C 477.252 580.319, 479.245 577.672, 479.182 573.290 C 479.090 566.901, 470.626 547.583, 462.844 536 C 449.584 516.264, 425.933 485.608, 420.990 481.750 C 415.826 477.719, 415 477.362, 415 479.156" stroke="none" fill="black" fill-rule="evenodd"/>
	<path fill-opacity="0.990" d="M 142 5.215 C 136.022 8.402, 131.765 14.906, 128.035 26.549 C 124.074 38.913, 122.826 50.263, 124.116 62.177 C 124.671 67.305, 125.159 78.475, 125.201 87 C 125.282 103.522, 123.945 109.888, 119.945 112.029 C 117.037 113.586, 110.849 113.114, 106.141 110.978 C 100.024 108.203, 98.648 108.455, 96.460 112.750 C 94.699 116.209, 94.507 119.795, 93.987 159 C 93.609 187.468, 93.053 202.164, 92.304 203.511 C 90.469 206.809, 87.801 208.645, 82.187 210.473 C 75.516 212.645, 74.793 214.284, 74.680 227.500 C 74.579 239.312, 76.124 245.303, 82.512 257.874 C 88.195 269.058, 91.527 280.377, 90.596 285.338 C 90.163 287.648, 88.224 290.933, 85.450 294.056 C 82.485 297.395, 81 299.981, 81 301.808 C 81 305.451, 88.376 318.226, 96.960 329.448 C 104.804 339.703, 107.388 344.957, 106.523 348.894 C 106.199 350.372, 104.181 354.162, 102.040 357.317 C 96.842 364.977, 96.291 367.904, 98.997 373.494 C 101.427 378.514, 108.554 384.764, 130.161 400.823 C 146.573 413.021, 148.422 415.499, 148.168 424.948 C 147.996 431.370, 148.113 431.716, 151.583 435.049 C 155.765 439.066, 157.889 442.960, 160.905 452.134 C 162.104 455.782, 163.854 459.450, 164.793 460.284 C 168.915 463.945, 187.639 473.419, 197.130 476.646 C 209.762 480.940, 235.590 488.148, 247.063 490.581 C 259.320 493.179, 280.589 493.022, 292.500 490.244 C 297.450 489.089, 306.762 487.430, 313.193 486.556 C 332.017 484, 346.636 479.166, 361 470.749 C 378.866 460.280, 387.100 458.090, 392.023 462.500 C 397.285 467.215, 419.830 503.669, 429.747 523.500 C 437.459 538.921, 443.978 555.540, 447.932 569.857 C 451.591 583.105, 453.777 587.793, 457.925 591.284 C 461.055 593.917, 470.034 597.394, 472.237 596.826 C 472.931 596.647, 476.732 593.069, 480.681 588.875 C 488.458 580.617, 489.753 577.482, 488.584 569.743 C 487.650 563.558, 481.257 549.801, 472.554 535.244 C 458.777 512.202, 446.607 496.366, 424.242 472.383 C 415.976 463.519, 408.715 455.336, 408.106 454.199 C 404.591 447.630, 408.687 442.878, 422.469 437.538 C 435.972 432.306, 445.713 425.563, 458.500 412.597 C 478.789 392.024, 494.375 369.186, 511.117 335.500 C 521.668 314.272, 524.906 304.599, 525.288 293.174 C 525.464 287.918, 525.172 286.608, 523.559 285.424 C 520.780 283.385, 516.959 283.656, 509.636 286.413 C 505.478 287.978, 502.883 288.483, 502.252 287.852 C 501.620 287.220, 502.627 283.751, 505.115 277.980 C 510.672 265.089, 513.133 255.066, 513.703 243 C 514.353 229.242, 512.697 222.354, 505.092 207.184 C 501.669 200.356, 495.715 185.381, 491.065 171.909 C 485.004 154.350, 482.348 147.938, 480.437 146.250 C 477.646 143.786, 477.223 143.711, 465.321 143.586 C 457.667 143.506, 456.942 143.309, 454.031 140.525 C 452.320 138.888, 449.299 134.613, 447.319 131.025 C 438.517 115.078, 424.006 91.309, 421.856 89.317 C 417.672 85.439, 414.545 84.830, 407.362 86.496 C 393.206 89.779, 388.847 87.820, 377.996 73.302 C 370.256 62.946, 359.130 51.438, 352.823 47.264 C 347.728 43.892, 342.764 44.081, 335.127 47.936 C 331.788 49.621, 328.476 51, 327.766 51 C 327.056 51, 319.731 44.218, 311.487 35.929 C 303.244 27.640, 294.830 19.990, 292.790 18.929 C 287.843 16.357, 281.076 16.477, 274.685 19.250 C 270.831 20.922, 267.575 21.500, 262 21.500 C 255.335 21.500, 253.664 21.083, 246.991 17.750 C 242.861 15.687, 238.316 14, 236.891 14 C 235.466 14, 232.394 15.463, 230.064 17.250 C 220.523 24.571, 219.723 25, 215.602 25.003 C 212.540 25.005, 207.952 23.252, 197.500 18.086 C 179.791 9.333, 164.014 3.974, 154 3.312 C 147.437 2.878, 145.938 3.116, 142 5.215 M 147.500 14.288 C 142.375 17.178, 137.578 24.354, 134.740 33.378 C 132.688 39.903, 132.539 41.926, 132.964 57.500 C 133.781 87.458, 133.532 102.232, 132.129 107 C 129.525 115.847, 120.274 121.940, 109.307 122.032 C 107.213 122.049, 104.640 122.715, 103.588 123.510 C 101.755 124.897, 101.704 126.164, 102.339 154.405 C 103.016 184.560, 102.401 194.868, 99.362 204.281 C 97.585 209.786, 94.009 214.427, 89.910 216.547 C 85.018 219.076, 83 221.991, 83 226.529 C 83 233.447, 86.497 244.912, 93.080 259.576 C 98.431 271.495, 99.343 274.374, 99.416 279.571 C 99.491 284.984, 99.068 286.339, 95.512 292.071 C 89.386 301.946, 89.759 304.255, 99.861 318.977 C 104.353 325.524, 109.394 333.719, 111.062 337.190 C 113.797 342.878, 114.034 344.124, 113.461 349.823 C 113.111 353.301, 111.722 358.641, 110.374 361.690 C 108.258 366.475, 108.076 367.699, 109.045 370.636 C 110.658 375.523, 117.742 382.304, 131.640 392.262 C 149.262 404.890, 153.601 410.256, 156.954 423.567 C 157.518 425.804, 160.303 431.429, 163.144 436.067 C 165.985 440.705, 169.087 446.525, 170.037 449 C 171.545 452.928, 172.766 454.101, 179.632 458.224 C 190.042 464.474, 198.954 467.868, 222.178 474.425 C 259.408 484.936, 264.518 485.122, 310.182 477.623 C 342.535 472.310, 348.982 470.222, 363.095 460.485 C 374.973 452.291, 379.958 450.557, 389.553 451.283 L 396.793 451.830 394.556 444.665 C 393.325 440.724, 389.210 427.727, 385.409 415.783 L 378.500 394.066 364.738 388.977 C 345.704 381.940, 341.519 381.148, 335.503 383.446 C 329.608 385.697, 318.064 396.355, 312.885 404.328 C 310.803 407.534, 307.919 413.834, 306.476 418.328 C 301.549 433.678, 289.712 453.971, 285.671 453.995 C 284.277 454.003, 286.039 447.896, 289.709 440 C 294.295 430.131, 297 422.327, 297 418.964 L 297 416.241 288.250 420.632 C 277.746 425.903, 269.078 428.207, 261.278 427.801 L 255.500 427.500 261 424.869 C 264.025 423.422, 271.225 419.969, 277 417.197 C 283.849 413.909, 290.770 409.532, 296.904 404.612 C 307.756 395.907, 330 375.981, 330 374.966 C 330 373.762, 314.746 367.306, 308 365.655 C 288.830 360.964, 264.419 360.838, 246.500 365.339 C 218.310 372.420, 208.079 380.362, 208.022 395.207 C 208.010 398.375, 206.479 406.828, 204.580 414.207 C 197.626 441.241, 194.432 448.449, 189.931 447.272 C 187.442 446.621, 187.461 446.403, 190.941 436.017 C 192.558 431.190, 194.775 422.573, 195.866 416.870 C 197.848 406.514, 199.658 390, 198.810 390 C 198.564 390, 191.657 394.948, 183.462 400.995 C 170.305 410.703, 168.388 411.817, 167.081 410.509 C 165.774 409.202, 165.949 408.530, 168.579 404.765 C 171.288 400.887, 185.060 389.052, 200.500 377.335 C 209.696 370.356, 219.772 365.774, 240.779 359.019 C 251.351 355.620, 260 352.403, 260 351.872 C 260 349.459, 250.040 342.048, 240.004 336.995 C 231.105 332.513, 225.054 330.484, 207 325.931 C 198.349 323.749, 188.699 320.605, 185.162 318.816 C 173.486 312.912, 157.410 295.584, 158.171 289.723 C 158.481 287.339, 159.289 287.827, 172 298.081 C 191.120 313.504, 203.973 319.427, 222.992 321.579 C 229.053 322.264, 229.102 322.250, 228.599 319.885 C 227.711 315.708, 225.687 282.979, 226.280 282.386 C 227.226 281.440, 232.040 289.482, 233.569 294.562 C 234.472 297.563, 235 303.813, 235 311.503 L 235 323.689 248.250 332.498 C 255.537 337.342, 263.975 343.197, 267 345.508 C 275.150 351.733, 277.835 352.824, 289.177 354.518 C 310.116 357.647, 323.646 361.792, 340.500 370.241 C 346 372.998, 353.228 376.286, 356.561 377.548 C 363.526 380.182, 373 382.117, 373 380.904 C 373 380.451, 367.451 367.575, 360.670 352.290 C 353.888 337.006, 345.930 318.453, 342.986 311.062 C 332.381 284.441, 327.889 281.764, 283.224 275.444 C 263.043 272.589, 254.002 270.390, 243.519 265.789 L 236.528 262.721 223.014 264.482 C 215.581 265.451, 201.625 266.456, 192 266.716 C 171.128 267.280, 161.337 265.669, 141.094 258.338 C 126.778 253.153, 121.512 250.696, 118.155 247.637 C 115.643 245.347, 112.563 240.104, 113.299 239.368 C 113.544 239.123, 119.236 241.179, 125.948 243.938 C 162.275 258.871, 191.308 263.196, 213.312 256.953 C 215.409 256.358, 216.984 255.478, 216.812 254.997 C 216.640 254.515, 210.650 249.728, 203.500 244.358 C 189.386 233.757, 175.046 220.448, 166.561 210.072 C 157.083 198.482, 134.962 166.705, 131.886 160.261 C 130.248 156.830, 128.670 151.655, 128.378 148.761 L 127.847 143.500 131.901 148 C 134.130 150.475, 139.414 157.450, 143.642 163.500 C 152.533 176.221, 161.756 188, 162.826 188 C 163.232 188, 163.241 183.952, 162.846 179.004 C 161.988 168.267, 155.741 148.691, 150.304 139.702 C 148.375 136.513, 146.562 132.013, 146.276 129.702 L 145.754 125.500 150.672 130.261 C 158.434 137.774, 161.459 143.784, 165.393 159.500 C 167.320 167.200, 169.861 178.891, 171.040 185.481 C 174.562 205.164, 178.236 212.353, 190.744 224.034 C 211.792 243.691, 245.782 260.492, 275.500 265.929 C 294.806 269.462, 322 273.629, 321.996 273.055 C 321.986 271.541, 316.256 263.669, 298.767 241.142 C 262.036 193.833, 255.805 186.136, 242.432 171.554 C 235.026 163.479, 226.786 154.252, 224.122 151.051 C 214.512 139.503, 185.495 94.893, 169.888 67.672 C 164.266 57.869, 161.841 52.168, 157.422 38.375 C 152.919 24.317, 152.054 20.512, 152.596 17.125 C 152.959 14.856, 153.637 13, 154.102 13 C 155.403 13, 157.760 18.107, 161.621 29.297 C 169.005 50.692, 178.561 69.960, 190.936 88.404 C 194.682 93.989, 199.158 101.351, 200.881 104.765 C 204.695 112.320, 215.220 128.010, 222.839 137.500 C 225.931 141.350, 242.589 161.150, 259.859 181.500 C 300.439 229.320, 302.763 231.706, 301.465 224.211 C 301.206 222.720, 299.869 214.517, 298.493 205.983 C 297.117 197.449, 293.943 181.924, 291.440 171.483 C 288.938 161.042, 285.060 144.625, 282.823 135 C 278.724 117.359, 275.202 108.280, 270.991 104.500 C 268.075 101.883, 260.777 91.572, 258.251 86.500 C 257.155 84.300, 254.401 77.183, 252.129 70.684 C 248.917 61.492, 248.230 58.439, 249.035 56.934 C 249.605 55.870, 250.514 55, 251.057 55 C 252.727 55, 257.815 63.930, 260.110 70.891 C 263.766 81.979, 266.927 88.323, 270.753 92.250 C 272.762 94.313, 274.699 96, 275.058 96 C 275.417 96, 275.979 87.113, 276.306 76.250 C 276.651 64.811, 277.522 53.706, 278.375 49.861 C 280.059 42.275, 283.799 33, 285.174 33 C 285.685 33, 286.751 34.552, 287.543 36.449 C 288.842 39.558, 288.746 41.362, 286.573 54.699 C 285.247 62.840, 283.892 71.431, 283.562 73.792 C 282.755 79.574, 285.220 100.017, 290.580 132 C 295.235 159.770, 299.084 174.016, 301.923 173.980 C 303.068 173.966, 307.148 164.447, 316.816 139.230 C 334.139 94.053, 332.818 96.807, 332.919 105.638 C 333.025 114.985, 330.444 123.694, 319.163 152.059 C 314.228 164.467, 309.473 177.036, 308.595 179.991 C 306.748 186.213, 306.529 200.435, 308.007 218.273 C 309.604 237.547, 311.836 243.932, 322.943 261 C 329.292 270.757, 345.376 300.477, 356.632 323.250 C 359.283 328.613, 361.718 333, 362.044 333 C 362.371 333, 363.411 328.837, 364.356 323.750 C 365.301 318.663, 366.724 311.575, 367.517 308 C 369.430 299.375, 369.377 287.637, 367.394 280.932 C 365.441 274.322, 357.103 254.180, 353.571 247.538 C 351.023 242.746, 350.038 235, 351.977 235 C 354.136 235, 361.539 246.134, 367.159 257.831 C 370.433 264.646, 373.301 270.033, 373.532 269.801 C 374.680 268.654, 379.067 244.818, 380.449 232.218 C 383.660 202.963, 383.440 175.675, 379.858 158.819 C 379.085 155.177, 379.182 153.531, 380.298 151.402 L 381.731 148.666 383.790 154.169 C 387.853 165.029, 389.172 173.868, 389.655 193.500 C 389.974 206.424, 389.655 216.817, 388.657 226 C 387.850 233.425, 387.355 239.671, 387.558 239.880 C 388.356 240.703, 402.634 226.019, 408.975 217.853 C 419.966 203.698, 424.868 194.474, 432.484 173.616 C 435.535 165.260, 442 160.007, 442 165.884 C 442 169.326, 436.900 182.662, 431.056 194.500 C 423.762 209.276, 416.231 220.612, 404.500 234.474 C 390.999 250.428, 385.359 258.946, 383.130 266.749 C 382.069 270.462, 378.793 285.875, 375.850 301 C 371.104 325.393, 370.503 329.912, 370.530 341 C 370.550 349.457, 371.109 355.603, 372.258 360 C 373.893 366.256, 385.612 391, 386.940 391 C 387.296 391, 388.865 387.063, 390.425 382.250 C 391.986 377.438, 399.456 359.325, 407.025 342 C 441.505 263.081, 448.297 244.302, 450.942 220.573 C 452.353 207.911, 454.368 204.943, 457.474 210.950 C 459.984 215.803, 459.288 220.713, 453.061 242.102 C 443.437 275.154, 440.158 283.936, 423.042 322.500 C 413.345 344.349, 410.426 351.759, 411.209 352.542 C 411.433 352.766, 415.190 350.111, 419.558 346.641 C 433.152 335.841, 448.589 318.708, 467.441 293.500 C 468.845 291.622, 468.938 291.771, 468.968 295.934 C 468.997 299.887, 467.983 301.895, 459.628 314.434 C 447.333 332.888, 443.837 336.620, 423.388 353.119 C 406.489 366.753, 400.578 372.980, 397.468 380.422 C 395.401 385.368, 393.792 411.465, 395.020 420.131 C 396.042 427.348, 397.097 430.692, 399.516 434.384 L 401.086 436.780 407.793 434.799 C 416.677 432.176, 431.239 425.270, 439 420 C 447.353 414.327, 458.701 403.427, 465.389 394.653 C 479.046 376.732, 504.311 334.493, 510.041 320 C 512.159 314.644, 516.280 296.947, 515.574 296.241 C 515.380 296.047, 512.366 296.628, 508.876 297.532 C 492.148 301.867, 486.993 290.983, 497.354 273.203 C 503.872 262.018, 505.452 255.850, 505.478 241.500 C 505.505 226.941, 503.924 221.043, 497.471 211.619 C 492.067 203.725, 490.973 200.858, 482.930 173.500 C 479.535 161.950, 476.638 152.364, 476.493 152.198 C 476.347 152.031, 472.414 152.403, 467.752 153.023 C 456.768 154.485, 452.338 153.386, 447.808 148.076 C 445.989 145.942, 438.009 133.089, 430.075 119.512 L 415.650 94.826 411.075 95.424 C 395.921 97.403, 392.518 97.297, 387.416 94.690 C 381.537 91.687, 378.489 88.544, 369.286 76 C 361.934 65.979, 355.282 59.231, 350.121 56.563 C 342.999 52.880, 342.681 52.891, 335.881 57.074 C 328.863 61.391, 325.772 61.874, 322 59.243 C 319.635 57.594, 312.279 49.991, 299.996 36.500 C 289.423 24.888, 287.477 24.287, 274.378 28.585 C 263.001 32.317, 254.858 31.802, 245.192 26.739 C 236.913 22.402, 235.968 22.271, 233.405 25.108 C 232.357 26.268, 229.250 28.381, 226.500 29.804 C 222.435 31.907, 220.071 32.399, 213.859 32.432 C 206.310 32.473, 206.034 32.382, 190.859 24.824 C 182.412 20.617, 172.701 16.010, 169.280 14.587 C 161.166 11.212, 153.151 11.102, 147.500 14.288 M 414 478.135 C 414 478.759, 419.955 490.346, 427.234 503.885 C 441.968 531.290, 451.772 552.537, 457.935 570.423 C 460.194 576.981, 462.538 582.944, 463.144 583.673 C 465.608 586.643, 474.089 583.822, 478.228 578.656 C 480.752 575.506, 480.406 571.977, 476.609 562.144 C 469.981 544.983, 466.479 539.348, 441.930 506.357 C 430.614 491.150, 424.670 484.060, 420.758 481.107 C 414.992 476.754, 414 476.317, 414 478.135" stroke="none" fill="black" fill-rule="evenodd"/>
</svg>